<svg width="114" height="23" viewBox="0 0 114 23" fill="none" xmlns="http://www.w3.org/2000/svg">
<path d="M4.9233 17.2912L4.93395 11.8473H5.59446L10.8359 5.63636H16.0455L9.00355 13.8608H7.92756L4.9233 17.2912ZM0.81108 22V0.181818H5.34943V22H0.81108ZM11.0384 22L6.22301 14.8729L9.24858 11.6662L16.3544 22H11.0384ZM22.9382 22.3089C21.8942 22.3089 20.9638 22.1278 20.147 21.7656C19.3303 21.3963 18.6839 20.853 18.2081 20.1357C17.7393 19.4112 17.505 18.5092 17.505 17.4297C17.505 16.5206 17.6719 15.7571 18.0057 15.1392C18.3395 14.5213 18.794 14.0241 19.3693 13.6477C19.9446 13.2713 20.598 12.9872 21.3295 12.7955C22.0682 12.6037 22.8423 12.4688 23.652 12.3906C24.6037 12.2912 25.3707 12.1989 25.9531 12.1136C26.5355 12.0213 26.9581 11.8864 27.2209 11.7088C27.4837 11.5312 27.6151 11.2685 27.6151 10.9205V10.8565C27.6151 10.1818 27.402 9.6598 26.9759 9.29048C26.5568 8.92116 25.9602 8.73651 25.1861 8.73651C24.3693 8.73651 23.7195 8.91761 23.2365 9.27983C22.7536 9.63494 22.4339 10.0824 22.2777 10.6222L18.0803 10.2812C18.2933 9.28693 18.7124 8.42756 19.3374 7.70312C19.9624 6.97159 20.7685 6.41051 21.7557 6.01989C22.75 5.62216 23.9006 5.4233 25.2074 5.4233C26.1165 5.4233 26.9865 5.52983 27.8175 5.7429C28.6555 5.95597 29.3977 6.28622 30.044 6.73366C30.6974 7.18111 31.2124 7.75639 31.5888 8.45952C31.9652 9.15554 32.1534 9.99006 32.1534 10.9631V22H27.8494V19.7308H27.7216C27.4588 20.2422 27.1072 20.6932 26.6669 21.0838C26.2266 21.4673 25.6974 21.7692 25.0795 21.9893C24.4616 22.2024 23.7479 22.3089 22.9382 22.3089ZM24.2379 19.1768C24.9055 19.1768 25.495 19.0455 26.0064 18.7827C26.5178 18.5128 26.919 18.1506 27.2102 17.696C27.5014 17.2415 27.647 16.7266 27.647 16.1513V14.4148C27.505 14.5071 27.3097 14.5923 27.0611 14.6705C26.8196 14.7415 26.5462 14.8089 26.2408 14.8729C25.9354 14.9297 25.63 14.983 25.3246 15.0327C25.0192 15.0753 24.7422 15.1143 24.4936 15.1499C23.9609 15.228 23.4957 15.3523 23.098 15.5227C22.7003 15.6932 22.3913 15.924 22.1712 16.2152C21.951 16.4993 21.8409 16.8544 21.8409 17.2805C21.8409 17.8984 22.0646 18.3707 22.5121 18.6974C22.9666 19.017 23.5419 19.1768 24.2379 19.1768ZM35.6744 22V5.63636H39.9996V8.52344H40.1914C40.5323 7.56463 41.1005 6.80824 41.896 6.25426C42.6914 5.70028 43.6431 5.4233 44.7511 5.4233C45.8732 5.4233 46.8285 5.70384 47.6168 6.26491C48.4052 6.81889 48.9308 7.57173 49.1935 8.52344H49.364C49.6978 7.58594 50.3015 6.83665 51.1751 6.27557C52.0558 5.70739 53.0962 5.4233 54.2965 5.4233C55.8235 5.4233 57.0629 5.9098 58.0146 6.88281C58.9734 7.84872 59.4528 9.21946 59.4528 10.995V22H54.9251V11.8899C54.9251 10.9808 54.6836 10.299 54.2006 9.84446C53.7177 9.38991 53.114 9.16264 52.3896 9.16264C51.5657 9.16264 50.9229 9.42543 50.4613 9.95099C49.9996 10.4695 49.7688 11.1548 49.7688 12.0071V22H45.369V11.794C45.369 10.9915 45.1381 10.3523 44.6765 9.87642C44.2219 9.40057 43.6218 9.16264 42.8761 9.16264C42.3718 9.16264 41.9173 9.29048 41.5124 9.54616C41.1147 9.79474 40.7987 10.1463 40.5643 10.6009C40.3299 11.0483 40.2127 11.5739 40.2127 12.1776V22H35.6744ZM70.4311 22.3196C68.7763 22.3196 67.3452 21.968 66.1378 21.2649C64.9375 20.5547 64.0107 19.5675 63.3572 18.3033C62.7038 17.032 62.3771 15.5582 62.3771 13.8821C62.3771 12.1918 62.7038 10.7145 63.3572 9.45028C64.0107 8.17898 64.9375 7.19176 66.1378 6.48864C67.3452 5.77841 68.7763 5.4233 70.4311 5.4233C72.0859 5.4233 73.5135 5.77841 74.7138 6.48864C75.9212 7.19176 76.8516 8.17898 77.505 9.45028C78.1584 10.7145 78.4851 12.1918 78.4851 13.8821C78.4851 15.5582 78.1584 17.032 77.505 18.3033C76.8516 19.5675 75.9212 20.5547 74.7138 21.2649C73.5135 21.968 72.0859 22.3196 70.4311 22.3196ZM70.4524 18.804C71.2053 18.804 71.8338 18.5909 72.3381 18.1648C72.8423 17.7315 73.2223 17.142 73.478 16.3963C73.7408 15.6506 73.8722 14.8018 73.8722 13.8501C73.8722 12.8984 73.7408 12.0497 73.478 11.304C73.2223 10.5582 72.8423 9.96875 72.3381 9.53551C71.8338 9.10227 71.2053 8.88565 70.4524 8.88565C69.6925 8.88565 69.0533 9.10227 68.5348 9.53551C68.0234 9.96875 67.6364 10.5582 67.3736 11.304C67.1179 12.0497 66.9901 12.8984 66.9901 13.8501C66.9901 14.8018 67.1179 15.6506 67.3736 16.3963C67.6364 17.142 68.0234 17.7315 68.5348 18.1648C69.0533 18.5909 69.6925 18.804 70.4524 18.804ZM88.8295 22.3196C87.1747 22.3196 85.7436 21.968 84.5362 21.2649C83.3359 20.5547 82.4091 19.5675 81.7557 18.3033C81.1023 17.032 80.7756 15.5582 80.7756 13.8821C80.7756 12.1918 81.1023 10.7145 81.7557 9.45028C82.4091 8.17898 83.3359 7.19176 84.5362 6.48864C85.7436 5.77841 87.1747 5.4233 88.8295 5.4233C90.4844 5.4233 91.9119 5.77841 93.1122 6.48864C94.3196 7.19176 95.25 8.17898 95.9034 9.45028C96.5568 10.7145 96.8835 12.1918 96.8835 13.8821C96.8835 15.5582 96.5568 17.032 95.9034 18.3033C95.25 19.5675 94.3196 20.5547 93.1122 21.2649C91.9119 21.968 90.4844 22.3196 88.8295 22.3196ZM88.8509 18.804C89.6037 18.804 90.2322 18.5909 90.7365 18.1648C91.2408 17.7315 91.6207 17.142 91.8764 16.3963C92.1392 15.6506 92.2706 14.8018 92.2706 13.8501C92.2706 12.8984 92.1392 12.0497 91.8764 11.304C91.6207 10.5582 91.2408 9.96875 90.7365 9.53551C90.2322 9.10227 89.6037 8.88565 88.8509 8.88565C88.0909 8.88565 87.4517 9.10227 86.9332 9.53551C86.4219 9.96875 86.0348 10.5582 85.772 11.304C85.5163 12.0497 85.3885 12.8984 85.3885 13.8501C85.3885 14.8018 85.5163 15.6506 85.772 16.3963C86.0348 17.142 86.4219 17.7315 86.9332 18.1648C87.4517 18.5909 88.0909 18.804 88.8509 18.804ZM113.45 10.3026L109.295 10.5582C109.224 10.2031 109.071 9.88352 108.837 9.59943C108.602 9.30824 108.293 9.07741 107.91 8.90696C107.533 8.7294 107.082 8.64062 106.557 8.64062C105.854 8.64062 105.261 8.78977 104.778 9.08807C104.295 9.37926 104.053 9.76989 104.053 10.2599C104.053 10.6506 104.21 10.9808 104.522 11.2507C104.835 11.5206 105.371 11.7372 106.131 11.9006L109.092 12.4972C110.683 12.8239 111.869 13.3494 112.651 14.0739C113.432 14.7983 113.822 15.75 113.822 16.929C113.822 18.0014 113.506 18.9425 112.874 19.7521C112.249 20.5618 111.39 21.1939 110.296 21.6484C109.21 22.0959 107.956 22.3196 106.536 22.3196C104.369 22.3196 102.643 21.8686 101.358 20.9666C100.08 20.0575 99.3303 18.8217 99.1101 17.2592L103.574 17.0249C103.709 17.6854 104.036 18.1896 104.554 18.5376C105.072 18.8786 105.737 19.049 106.546 19.049C107.342 19.049 107.981 18.8963 108.464 18.5909C108.954 18.2784 109.202 17.8771 109.21 17.3871C109.202 16.9751 109.028 16.6378 108.688 16.375C108.347 16.1051 107.821 15.8991 107.111 15.7571L104.277 15.1925C102.679 14.8729 101.489 14.3189 100.708 13.5305C99.9339 12.7422 99.5469 11.7372 99.5469 10.5156C99.5469 9.46449 99.831 8.55895 100.399 7.79901C100.974 7.03906 101.781 6.45313 102.817 6.04119C103.862 5.62926 105.083 5.4233 106.482 5.4233C108.549 5.4233 110.175 5.86009 111.362 6.73366C112.555 7.60724 113.251 8.79687 113.45 10.3026Z" fill="black"/>
</svg>
